<?xml version="1.0" encoding="UTF-8" standalone="no"?>
<!-- Created with Inkscape (http://www.inkscape.org/) -->

<svg
   xmlns:dc="http://purl.org/dc/elements/1.1/"
   xmlns:cc="http://creativecommons.org/ns#"
   xmlns:rdf="http://www.w3.org/1999/02/22-rdf-syntax-ns#"
   xmlns:svg="http://www.w3.org/2000/svg"
   xmlns="http://www.w3.org/2000/svg"
   xmlns:sodipodi="http://sodipodi.sourceforge.net/DTD/sodipodi-0.dtd"
   xmlns:inkscape="http://www.inkscape.org/namespaces/inkscape"
   width="137.0629mm"
   height="71.706558mm"
   viewBox="0 0 485.65593 254.07835"
   id="svg29727"
   version="1.1"
   inkscape:version="0.91 r13725"
   sodipodi:docname="xkcdcell.svg">
  <defs
     id="defs29729">
    <inkscape:path-effect
       effect="spiro"
       id="path-effect30589"
       is_visible="true" />
    <inkscape:path-effect
       effect="spiro"
       id="path-effect30555"
       is_visible="true" />
    <inkscape:path-effect
       effect="spiro"
       id="path-effect30547"
       is_visible="true" />
    <inkscape:path-effect
       effect="spiro"
       id="path-effect30543"
       is_visible="true" />
    <inkscape:path-effect
       effect="spiro"
       id="path-effect30539"
       is_visible="true" />
    <inkscape:path-effect
       effect="spiro"
       id="path-effect30527"
       is_visible="true" />
    <inkscape:path-effect
       effect="spiro"
       id="path-effect30523"
       is_visible="true" />
    <inkscape:path-effect
       effect="spiro"
       id="path-effect30515"
       is_visible="true" />
    <inkscape:path-effect
       effect="spiro"
       id="path-effect30499"
       is_visible="true" />
    <inkscape:path-effect
       effect="spiro"
       id="path-effect30487"
       is_visible="true" />
    <inkscape:path-effect
       effect="spiro"
       id="path-effect30483"
       is_visible="true" />
    <inkscape:path-effect
       effect="spiro"
       id="path-effect30419"
       is_visible="true" />
    <inkscape:path-effect
       effect="spiro"
       id="path-effect30407"
       is_visible="true" />
    <inkscape:path-effect
       effect="spiro"
       id="path-effect30403"
       is_visible="true" />
    <inkscape:path-effect
       effect="spiro"
       id="path-effect30399"
       is_visible="true" />
    <inkscape:path-effect
       effect="spiro"
       id="path-effect30395"
       is_visible="true" />
    <inkscape:path-effect
       effect="spiro"
       id="path-effect30391"
       is_visible="true" />
    <inkscape:path-effect
       effect="spiro"
       id="path-effect30367"
       is_visible="true" />
    <inkscape:path-effect
       effect="spiro"
       id="path-effect30363"
       is_visible="true" />
    <inkscape:path-effect
       effect="spiro"
       id="path-effect30345"
       is_visible="true" />
    <inkscape:path-effect
       effect="spiro"
       id="path-effect30341"
       is_visible="true" />
    <inkscape:path-effect
       effect="spiro"
       id="path-effect30337"
       is_visible="true" />
    <inkscape:path-effect
       effect="spiro"
       id="path-effect30333"
       is_visible="true" />
    <inkscape:path-effect
       effect="spiro"
       id="path-effect30301"
       is_visible="true" />
    <inkscape:path-effect
       effect="spiro"
       id="path-effect30297"
       is_visible="true" />
    <inkscape:path-effect
       effect="spiro"
       id="path-effect30293"
       is_visible="true" />
    <inkscape:path-effect
       effect="spiro"
       id="path-effect30289"
       is_visible="true" />
  </defs>
  <sodipodi:namedview
     id="base"
     pagecolor="#ffffff"
     bordercolor="#666666"
     borderopacity="1.0"
     inkscape:pageopacity="0.0"
     inkscape:pageshadow="2"
     inkscape:zoom="1.4"
     inkscape:cx="429.73058"
     inkscape:cy="31.020164"
     inkscape:document-units="px"
     inkscape:current-layer="layer1"
     showgrid="false"
     inkscape:window-width="1831"
     inkscape:window-height="1047"
     inkscape:window-x="89"
     inkscape:window-y="33"
     inkscape:window-maximized="1"
     fit-margin-top="0"
     fit-margin-left="0"
     fit-margin-right="0"
     fit-margin-bottom="0" />
  <metadata
     id="metadata29732">
    <rdf:RDF>
      <cc:Work
         rdf:about="">
        <dc:format>image/svg+xml</dc:format>
        <dc:type
           rdf:resource="http://purl.org/dc/dcmitype/StillImage" />
        <dc:title />
      </cc:Work>
    </rdf:RDF>
  </metadata>
  <g
     inkscape:label="Layer 1"
     inkscape:groupmode="layer"
     id="layer1"
     transform="translate(-369.66051,-283.45331)">
    <path
       style="fill:none;fill-rule:evenodd;stroke:#000000;stroke-width:0.80077106;stroke-linecap:butt;stroke-linejoin:miter;stroke-miterlimit:4;stroke-dasharray:none;stroke-opacity:1"
       d="m 410.7083,501.21211 c -0.52692,0.77236 -1.42308,1.28022 -2.35643,1.33539 -0.66335,0.0392 -1.32776,-0.13964 -1.92085,-0.43933 -0.59308,-0.29969 -1.11988,-0.71668 -1.60573,-1.17002 -0.58128,-0.54238 -1.10871,-1.13911 -1.65144,-1.72007 -0.54813,-0.58675 -1.11687,-1.16353 -1.5457,-1.84237 -0.42882,-0.67884 -0.7123,-1.48156 -0.62239,-2.27945 0.0831,-0.73761 0.47144,-1.4 0.72346,-2.09819 0.21541,-0.59676 0.33354,-1.22849 0.59527,-1.80643 0.46895,-1.03551 1.36514,-1.82056 2.32987,-2.4218 0.96473,-0.60124 2.01663,-1.0496 2.99963,-1.62049 0.5107,-0.29659 1.01332,-0.63075 1.58616,-0.77439 0.74622,-0.18711 1.53025,-0.0321 2.28514,0.11623 0.64894,0.1275 1.30295,0.25088 1.9204,0.48782 0.61745,0.23693 1.20335,0.59701 1.60616,1.12154 0.3868,0.50368 0.58284,1.12605 0.90823,1.67142 0.13586,0.22771 0.29407,0.44159 0.42744,0.67077 0.13337,0.22919 0.24281,0.47827 0.26867,0.74217 0.0268,0.27336 -0.0373,0.54744 -0.1189,0.8097 -0.0816,0.26226 -0.18161,0.52017 -0.23005,0.79053 -0.0941,0.52507 0.0109,1.06852 -0.0641,1.59665 -0.0831,0.58511 -0.38024,1.11381 -0.6024,1.66144 -0.38092,0.93897 -0.55036,1.96289 -1.02819,2.85644 -0.69304,1.29599 -2.04214,2.21859 -3.50125,2.39437"
       id="path30361"
       inkscape:path-effect="#path-effect30363"
       inkscape:original-d="m 410.7083,501.21211 c -0.71807,0.38124 -1.54119,1.20559 -2.35643,1.33539 -1.02065,0.16247 -2.76252,-0.98692 -3.52658,-1.60935 -0.5735,-0.4672 -1.21042,-1.1202 -1.65144,-1.72007 -0.50291,-0.68406 -2.18781,-3.37705 -2.16809,-4.12182 0.021,-0.78895 0.48769,-1.3828 0.72346,-2.09819 0.20179,-0.61237 0.27499,-1.23064 0.59527,-1.80643 1.14858,-2.06497 3.36044,-2.98858 5.3295,-4.04229 0.48907,-0.2617 1.02974,-0.66465 1.58616,-0.77439 0.6855,-0.13509 1.589,0.005 2.28514,0.11623 0.90367,0.14443 2.90783,0.80597 3.52656,1.60936 0.36846,0.47843 0.61989,1.14078 0.90823,1.67142 0.19408,0.35715 0.69846,0.99016 0.69611,1.41294 -0.002,0.5094 -0.2432,1.10764 -0.34895,1.60023 -0.11328,0.52804 0.005,1.06306 -0.0641,1.59665 -0.0798,0.61742 -0.37826,1.10377 -0.6024,1.66144 -0.33426,0.83169 -0.29711,2.24444 -1.02819,2.85644 -1.12269,0.93986 -2.19249,1.69402 -3.50125,2.39437"
       inkscape:connector-curvature="0"
       inkscape:export-filename="/home/tsuname/Documents/hyperparamter.space/static/img/mechanistic_single_cell/xkcdcell.png"
       inkscape:export-xdpi="200"
       inkscape:export-ydpi="200" />
    <path
       style="fill:none;fill-rule:evenodd;stroke:#000000;stroke-width:0.80077106;stroke-linecap:butt;stroke-linejoin:miter;stroke-miterlimit:4;stroke-dasharray:none;stroke-opacity:1"
       d="m 405.79218,499.15604 c 0.28393,0.3346 0.67583,0.5761 1.10235,0.67931 0.42652,0.10321 0.88548,0.0676 1.29097,-0.1002 0.19662,-0.0814 0.3833,-0.19513 0.52397,-0.35479 0.12923,-0.14668 0.21579,-0.32834 0.26213,-0.51826 0.0463,-0.18992 0.0535,-0.38806 0.0352,-0.58269 -0.0366,-0.38926 -0.17261,-0.76105 -0.29229,-1.13326 -0.30528,-0.94941 -0.51149,-1.93188 -0.88489,-2.85662 -0.37341,-0.92475 -0.94113,-1.81112 -1.79139,-2.33231 -0.46366,-0.28422 -0.99434,-0.4486 -1.5329,-0.5242 -0.53856,-0.0756 -1.08617,-0.0647 -1.62785,-0.0162 -0.0781,0.007 -0.15744,0.0151 -0.22964,0.0456 -0.0361,0.0152 -0.0701,0.0361 -0.0982,0.0634 -0.0281,0.0274 -0.0501,0.0614 -0.0609,0.099 -0.0112,0.0389 -0.0102,0.0807 -3.8e-4,0.11997 0.01,0.0392 0.0283,0.076 0.0513,0.10926 0.046,0.0666 0.10912,0.11899 0.16826,0.17421 0.27635,0.25801 0.47565,0.58928 0.62617,0.93611 0.15053,0.34682 0.25515,0.71139 0.36645,1.07271 0.11131,0.36133 0.23055,0.72254 0.40773,1.05654 0.17717,0.33399 0.41613,0.64205 0.72932,0.85383 0.3906,0.26413 0.89465,0.36302 1.35045,0.24228 0.22791,-0.0604 0.44198,-0.17372 0.61785,-0.33074 0.17586,-0.15702 0.31301,-0.35767 0.39237,-0.57967 0.0966,-0.27031 0.10818,-0.5629 0.17268,-0.84262 0.0323,-0.13986 0.0779,-0.27756 0.148,-0.40281 0.0701,-0.12525 0.16518,-0.23756 0.28271,-0.31995 0.11753,-0.0824 0.25713,-0.13372 0.40031,-0.14368 0.14319,-0.01 0.2885,0.0216 0.41636,0.0868 0.12786,0.0652 0.23745,0.16292 0.32694,0.27514 0.0895,0.11221 0.15931,0.23856 0.22784,0.36467 l 0.87692,1.61377 c 0.17033,0.31345 0.32399,0.64646 0.34607,1.00251 0.0221,0.35606 -0.0801,0.71178 -0.24657,1.02729 -0.14042,0.26611 -0.326,0.51247 -0.56629,0.69356 -0.24029,0.18109 -0.5384,0.2935 -0.83906,0.28166 -0.30326,-0.0119 -0.58821,-0.14633 -0.84837,-0.30261 -0.26017,-0.15628 -0.50697,-0.33771 -0.78465,-0.46019 -0.1771,-0.0781 -0.36411,-0.13101 -0.54554,-0.19845 -0.18143,-0.0674 -0.36043,-0.15145 -0.50373,-0.28157 -0.17932,-0.16282 -0.29062,-0.38636 -0.38353,-0.61005 -0.0929,-0.22368 -0.17271,-0.45534 -0.30548,-0.65792 -0.10425,-0.15906 -0.23866,-0.29619 -0.3484,-0.45151 -0.0549,-0.0777 -0.10368,-0.1602 -0.13757,-0.24904 -0.0339,-0.0888 -0.0526,-0.18435 -0.0464,-0.27924 0.006,-0.0985 0.0396,-0.19458 0.0918,-0.27838 0.0521,-0.0838 0.12285,-0.15545 0.20343,-0.21244 0.16117,-0.11398 0.35835,-0.16796 0.55481,-0.18724 0.39381,-0.0386 0.79387,0.0558 1.14915,0.23006 0.35528,0.17423 0.66834,0.42563 0.94727,0.70631 0.55785,0.56136 0.98567,1.2408 1.54252,1.80315 0.30278,0.30578 0.64645,0.58045 0.87271,0.94649 0.11613,0.18787 0.20259,0.40109 0.36872,0.54663 0.13085,0.11463 0.30466,0.17733 0.47861,0.17906 0.17396,0.002 0.34699,-0.0564 0.48856,-0.15746 0.14157,-0.1011 0.25172,-0.24412 0.31947,-0.40435 0.0677,-0.16023 0.0936,-0.33713 0.0812,-0.51065 -0.0248,-0.34705 -0.20108,-0.67204 -0.4446,-0.92054 -0.24352,-0.2485 -0.55078,-0.42636 -0.86998,-0.56478 -0.63842,-0.27685 -1.34495,-0.41138 -1.92328,-0.79836 -0.28916,-0.19349 -0.5423,-0.45279 -0.68233,-0.7713 -0.07,-0.15925 -0.11087,-0.33198 -0.11289,-0.50593 -0.002,-0.17395 0.0353,-0.34901 0.11418,-0.50408 0.0794,-0.15608 0.19997,-0.2902 0.34361,-0.39034 0.14363,-0.10015 0.30987,-0.16661 0.482,-0.19876 0.34425,-0.0643 0.70546,0.01 1.01894,0.1658 0.31348,0.15611 0.58257,0.39053 0.81642,0.65121 0.23385,0.26068 0.435,0.54856 0.63926,0.83302 0.0973,0.13545 0.19574,0.27088 0.27329,0.41851 0.0776,0.14763 0.134,0.30913 0.14095,0.47574 0.007,0.17695 -0.0424,0.35513 -0.13631,0.5053 -0.0939,0.15018 -0.23096,0.27222 -0.38874,0.35266 -0.15779,0.0804 -0.33574,0.11957 -0.51283,0.11789 -0.1771,-0.002 -0.35316,-0.0438 -0.51409,-0.11771 -0.32186,-0.14789 -0.57732,-0.42073 -0.73992,-0.73542 -0.1626,-0.31468 -0.23698,-0.66946 -0.25565,-1.02318 -0.0373,-0.70743 0.14078,-1.40703 0.19658,-2.11325 0.0279,-0.35311 0.0248,-0.71146 -0.0503,-1.0576 -0.0752,-0.34615 -0.22557,-0.68087 -0.46582,-0.94115 -0.12498,-0.13539 -0.2744,-0.25159 -0.36872,-0.40987 -0.0472,-0.0791 -0.0795,-0.16876 -0.0816,-0.26086 -0.002,-0.0921 0.0279,-0.18669 0.0916,-0.25322 0.0588,-0.0614 0.14065,-0.0948 0.22214,-0.11886 0.32663,-0.0964 0.68498,-0.0652 1.00053,0.0629 0.31555,0.12808 0.58905,0.34933 0.80138,0.61559 0.42466,0.53251 0.59965,1.22144 0.6883,1.89675 0.0886,0.67532 0.10278,1.36235 0.2579,2.02556 0.0776,0.33161 0.19085,0.65673 0.36009,0.95226 0.16924,0.29552 0.39602,0.56121 0.67711,0.75348 0.15946,0.10907 0.33421,0.1934 0.50281,0.28774 0.16859,0.0943 0.33371,0.20086 0.46218,0.34515 0.12846,0.1443 0.21801,0.33129 0.21246,0.5244 -0.003,0.0966 -0.0296,0.19296 -0.0814,0.27452 -0.0517,0.0816 -0.12882,0.14767 -0.21913,0.18196 -0.11095,0.0421 -0.23622,0.0348 -0.34942,-8.1e-4 -0.11321,-0.0356 -0.21609,-0.0979 -0.31405,-0.16492 -0.61453,-0.42035 -1.06799,-1.03706 -1.44545,-1.67883 -0.37747,-0.64176 -0.69152,-1.32062 -1.09712,-1.94498 -0.16744,-0.25775 -0.35303,-0.51164 -0.43846,-0.80689 -0.0921,-0.31826 -0.0573,-0.67 0.0883,-0.96761 0.14561,-0.2976 0.39945,-0.53935 0.70059,-0.67748 0.30115,-0.13813 0.64721,-0.17308 0.97161,-0.10572 0.3244,0.0674 0.62597,0.23556 0.85949,0.47059 0.23353,0.23502 0.39904,0.53544 0.48078,0.85651 0.0817,0.32107 0.0804,0.66196 0.004,0.98435 -0.15277,0.64478 -0.60584,1.19986 -1.17854,1.53317 -0.10887,0.0634 -0.22186,0.1193 -0.33317,0.17828 -0.1113,0.059 -0.22098,0.12103 -0.33317,0.17829 -0.61042,0.31156 -1.30386,0.47827 -1.98603,0.41246 -0.68217,-0.0658 -1.34939,-0.37566 -1.79346,-0.89766 -0.22204,-0.26099 -0.3866,-0.57183 -0.46954,-0.90431 -0.0829,-0.33248 -0.0833,-0.68625 0.007,-1.01683 0.0902,-0.33058 0.27173,-0.63688 0.52405,-0.86873 0.25233,-0.23185 0.57528,-0.38756 0.91499,-0.43249 0.13768,-0.0182 0.28027,-0.0182 0.41247,0.0244 0.13221,0.0425 0.25346,0.13147 0.31363,0.25663 0.0446,0.0928 0.0534,0.20151 0.0279,0.30123 -0.0255,0.0997 -0.0843,0.19001 -0.16283,0.25655 -0.0785,0.0665 -0.17607,0.10953 -0.27759,0.12648 -0.10151,0.017 -0.20675,0.008 -0.30531,-0.0214 -0.19713,-0.0592 -0.36309,-0.20015 -0.48014,-0.36947 -0.11704,-0.16932 -0.18876,-0.36607 -0.24002,-0.56542 -0.0759,-0.29535 -0.10941,-0.60372 -0.0747,-0.9067 0.0347,-0.30298 0.13952,-0.60062 0.32168,-0.8452 0.18215,-0.24458 0.44397,-0.43341 0.73988,-0.50713 0.29591,-0.0737 0.62437,-0.0264 0.8756,0.14646 0.17433,0.11996 0.30612,0.29358 0.40626,0.48 0.10013,0.18643 0.17097,0.38685 0.24432,0.58535 0.15469,0.4186 0.32361,0.8376 0.38131,1.28012 0.0288,0.22126 0.0292,0.44745 -0.0145,0.66627 -0.0436,0.21883 -0.13233,0.43031 -0.27026,0.60571 -0.0676,0.0859 -0.14747,0.16352 -0.24194,0.21855 -0.0945,0.055 -0.20433,0.0866 -0.31336,0.0786 -0.0915,-0.007 -0.18016,-0.0412 -0.25474,-0.0947 -0.0746,-0.0534 -0.13522,-0.12528 -0.17929,-0.20573 -0.0881,-0.16091 -0.10882,-0.35183 -0.0913,-0.53445 0.0206,-0.2144 0.0923,-0.42427 0.2112,-0.6039 0.11885,-0.17963 0.285,-0.32838 0.4787,-0.42258 0.1937,-0.0942 0.41463,-0.13306 0.62832,-0.10603 0.21369,0.027 0.41917,0.12049 0.5769,0.26718 0.22588,0.21007 0.34119,0.5092 0.49397,0.77718 0.13024,0.22844 0.29278,0.44212 0.37583,0.69162 0.11107,0.33369 0.0664,0.70913 -0.0886,1.02482 -0.155,0.31569 -0.41387,0.57361 -0.71204,0.7601 -0.59635,0.37299 -1.32128,0.46226 -2.02003,0.54284 -0.42544,0.0491 -0.85574,0.0982 -1.28073,0.0454 -0.42499,-0.0528 -0.85078,-0.2184 -1.13681,-0.53714 -0.16175,-0.18025 -0.27291,-0.40321 -0.33348,-0.6377 -0.0606,-0.23449 -0.0716,-0.48032 -0.0466,-0.72121 0.0517,-0.49862 0.2568,-0.97447 0.54763,-1.38278 0.29083,-0.40832 0.66532,-0.75194 1.07139,-1.04589 0.23924,-0.17319 0.49428,-0.33198 0.77742,-0.41601 0.51872,-0.15394 1.09805,-0.0363 1.55155,0.25884 0.45351,0.29514 0.78618,0.75429 0.98602,1.25711 0.39967,1.00566 0.28459,2.13194 0.17291,3.20833 -0.14478,1.39537 -0.28062,2.82114 -0.85315,4.10186 -0.14395,0.32202 -0.31795,0.63669 -0.5672,0.88628 -0.24925,0.2496 -0.58236,0.42999 -0.93499,0.43835 -0.34022,0.008 -0.6672,-0.1425 -0.94212,-0.3431 -0.27491,-0.20059 -0.50871,-0.45116 -0.76063,-0.67997 -0.46226,-0.41986 -0.98944,-0.76995 -1.40777,-1.2336 -0.20916,-0.23183 -0.39017,-0.49246 -0.50618,-0.78234 -0.116,-0.28988 -0.16484,-0.61059 -0.11042,-0.91805 0.0539,-0.30462 0.2068,-0.58576 0.40438,-0.8238 0.19757,-0.23804 0.43902,-0.43594 0.68949,-0.61751 0.50094,-0.36314 1.05608,-0.67826 1.42783,-1.17284 0.21077,-0.28041 0.35195,-0.6055 0.5064,-0.92045 0.15445,-0.31495 0.32871,-0.62889 0.58856,-0.86453 0.12993,-0.11782 0.28058,-0.21444 0.44623,-0.27208 0.16565,-0.0576 0.34667,-0.0752 0.51826,-0.0389 0.17159,0.0363 0.33283,0.12825 0.4427,0.26497 0.10986,0.13671 0.16526,0.31861 0.13905,0.49203 -0.0191,0.12658 -0.0791,0.24343 -0.14856,0.35099 -0.0694,0.10755 -0.14911,0.20844 -0.21408,0.31874 -0.065,0.1103 -0.11554,0.23282 -0.11903,0.36079 -0.002,0.064 0.009,0.12864 0.0334,0.18762 0.0249,0.059 0.0646,0.11209 0.11641,0.14975 0.0716,0.0521 0.16417,0.0724 0.25189,0.0607 0.0877,-0.0117 0.17013,-0.0543 0.23447,-0.11506 0.0643,-0.0608 0.111,-0.13903 0.13946,-0.22283 0.0284,-0.0838 0.0391,-0.17302 0.0372,-0.2615 -0.004,-0.17694 -0.057,-0.34867 -0.11069,-0.51733 -0.0536,-0.16866 -0.10869,-0.33952 -0.1165,-0.51633 -0.01,-0.22675 0.0616,-0.45679 0.20117,-0.63577 0.13958,-0.17898 0.34644,-0.30491 0.57011,-0.34346 0.22367,-0.0386 0.46196,0.0114 0.64949,0.13928 0.18753,0.12786 0.32155,0.33273 0.36039,0.55635 0.0231,0.13272 0.0141,0.27125 0.055,0.3996 0.0204,0.0642 0.054,0.12544 0.10423,0.17029 0.0502,0.0448 0.11843,0.0718 0.18533,0.0641 0.0567,-0.007 0.1094,-0.0379 0.14526,-0.0822 0.0359,-0.0444 0.0552,-0.10109 0.0578,-0.15809 0.003,-0.057 -0.0111,-0.1142 -0.0358,-0.16564 -0.0247,-0.0514 -0.0601,-0.0973 -0.101,-0.13714 -0.0818,-0.0796 -0.1838,-0.13458 -0.28425,-0.18876 -0.10045,-0.0542 -0.20226,-0.10975 -0.28313,-0.19028 -0.12891,-0.12837 -0.19396,-0.31525 -0.18345,-0.49687 0.0105,-0.18162 0.0937,-0.35614 0.22051,-0.48663 0.12676,-0.13049 0.29509,-0.2177 0.47266,-0.25723 0.17758,-0.0395 0.36397,-0.0326 0.54112,0.009 0.0965,0.0225 0.19108,0.0552 0.28966,0.0649 0.0493,0.005 0.0995,0.004 0.14776,-0.007 0.0483,-0.011 0.0947,-0.0322 0.1321,-0.0647 0.0341,-0.0296 0.0601,-0.0682 0.0763,-0.1103 0.0162,-0.0421 0.0226,-0.0878 0.0204,-0.13291 -0.005,-0.0902 -0.0437,-0.17634 -0.0995,-0.24735 -0.11154,-0.14202 -0.28119,-0.22268 -0.43559,-0.31634 -0.25187,-0.15279 -0.47379,-0.34942 -0.71087,-0.52428 -0.23708,-0.17486 -0.49728,-0.33119 -0.78686,-0.38531 -0.23675,-0.0442 -0.48886,-0.0159 -0.70349,0.0934 -0.21463,0.10928 -0.38871,0.30141 -0.46264,0.53063 -0.0559,0.1733 -0.0543,0.36195 -0.0145,0.53964 0.0398,0.17769 0.1165,0.34536 0.20793,0.50284 0.18285,0.31495 0.42579,0.59397 0.58665,0.9207 0.0787,0.15984 0.13678,0.32928 0.21739,0.48816 0.0806,0.15888 0.18776,0.31048 0.33922,0.4043 0.12021,0.0745 0.26208,0.10834 0.40319,0.11742 0.1411,0.009 0.28258,-0.005 0.42305,-0.0217 0.14046,-0.0162 0.2813,-0.0341 0.42268,-0.0316 0.14138,0.002 0.28454,0.0261 0.41118,0.089 0.21061,0.10459 0.36114,0.31806 0.39769,0.55035 0.0365,0.23229 -0.0387,0.47788 -0.19244,0.65583 -0.15372,0.17794 -0.38175,0.28728 -0.61624,0.3049 -0.23449,0.0176 -0.47309,-0.0546 -0.66405,-0.19183 -0.23108,-0.16605 -0.39158,-0.42719 -0.43538,-0.70835 -0.0438,-0.28116 0.0297,-0.57874 0.19929,-0.80721 0.16962,-0.22847 0.43321,-0.3849 0.71502,-0.42433 0.2818,-0.0394 0.57821,0.0387 0.80402,0.2118"
       id="path30365"
       inkscape:path-effect="#path-effect30367"
       inkscape:original-d="m 405.79218,499.15604 c 0.46482,1.17885 1.4446,1.0868 2.39332,0.57911 0.0838,-0.0448 0.46445,-0.21245 0.52397,-0.35479 0.25526,-0.61043 0.15722,-1.6274 0.005,-2.23421 -0.21345,-0.84756 -1.88307,-4.69112 -2.67628,-5.18893 -0.72206,-0.45316 -2.33926,-0.83454 -3.16075,-0.54043 -0.0185,0.007 -0.37923,0.17388 -0.3887,0.20801 -0.04,0.1441 0.14607,0.26896 0.21922,0.40344 0.30465,0.56061 1.77581,3.66296 2.12967,3.91919 0.62919,0.45554 1.88563,-0.27047 2.36067,-0.66813 0.40628,-0.34011 1.47373,-1.90463 1.97484,-0.9824 0.29231,0.53793 0.58462,1.07585 0.87692,1.61377 0.45166,0.83117 0.69744,1.20246 0.0995,2.0298 -0.19316,0.26726 -0.98316,0.96989 -1.40535,0.97522 -0.46023,0.005 -1.21884,-0.56825 -1.63302,-0.7628 -0.30555,-0.14345 -0.77277,-0.27983 -1.04927,-0.48002 -0.26373,-0.19094 -0.52726,-0.97032 -0.68901,-1.26797 -0.10443,-0.19209 -0.54784,-0.77019 -0.5324,-0.97979 0.0189,-0.25539 0.60509,-0.67498 0.85004,-0.67806 0.76844,-0.01 3.00474,2.1493 3.63894,2.73952 0.94243,0.87708 0.11099,-0.12689 0.87271,0.94649 0.12722,0.17924 0.47348,0.7398 0.36872,0.54663 -0.44241,-0.81416 -2.76164,-4.35825 -2.55102,-4.95839 0.55981,-1.59521 2.71963,0.55166 3.30023,1.06093 0.0526,0.0462 0.61415,0.9911 0.41424,0.89425 -0.52054,-0.25219 -2.46854,-4.27902 -2.86708,-5.01246 -0.007,-0.0131 -0.59204,-0.7991 -0.35873,-0.92395 0.0741,-0.0395 0.15902,-0.17924 0.22214,-0.11886 1.58862,1.52171 2.73468,4.37307 3.78531,6.30654 0.0935,0.17191 0.88649,1.57918 0.87692,1.61377 -0.10951,0.39516 -0.6256,-0.12804 -0.66347,-0.16573 -1.07407,-1.06696 -1.8254,-2.30399 -2.54257,-3.62381 -0.14624,-0.26896 -0.60488,-0.56257 -0.43846,-0.80689 0.52534,-0.77124 1.96499,2.05171 1.92619,2.09381 -0.0856,0.0928 -0.22211,0.11885 -0.33317,0.17828 -0.11098,0.0595 -0.20733,0.20389 -0.33317,0.17829 -0.73831,-0.15017 -2.57181,-2.84441 -2.80313,-3.70756 -0.0934,-0.34868 0.86177,-0.20846 0.7261,0.28098 -0.0898,0.3241 -1.28387,0.73788 -1.43799,-0.27201 -0.0716,-0.46953 1.43017,-2.55156 1.86246,-2.11257 0.23267,0.23627 0.51202,0.81034 0.65058,1.06535 0.54498,1.00289 1.33181,1.89112 0.0966,2.5521 -0.0949,0.0508 -0.4614,0.32734 -0.5553,0.29716 -0.10853,-0.0349 -0.55652,-0.72224 -0.5253,-0.83484 0.15017,-0.54195 1.39079,-1.14447 1.89512,-0.86533 0.23581,0.1305 0.37603,0.56017 0.49397,0.77718 0.12525,0.23053 0.38939,0.43331 0.37583,0.69162 -0.0533,1.01484 -1.99596,2.09436 -2.82068,2.32776 -0.71552,0.20252 -1.75218,-0.20289 -2.41754,-0.49177 -0.80114,-0.34782 -0.69832,-0.63434 -0.38003,-1.35891 0.36648,-0.83429 0.90141,-1.84307 1.61902,-2.42867 0.16661,-0.1359 0.77694,-0.41644 0.77742,-0.41601 0.46285,0.41269 2.63286,4.34458 2.71048,4.72428 0.2498,1.2216 -0.30978,3.05702 -0.85315,4.10186 -0.23661,0.45494 -0.87634,1.31673 -1.50219,1.32463 -0.40837,0.005 -1.45287,-0.81764 -1.70275,-1.02307 -0.28617,-0.23527 -2.2202,-2.4882 -2.02437,-2.93399 0.27768,-0.63217 1.9715,-2.21344 2.5217,-2.61415 0.2337,-0.1702 2.33368,-1.3842 2.6412,-1.33898 1.60736,0.2363 -0.17374,1.48235 -0.33185,1.36789 -0.51218,-0.37084 0.21259,-1.28382 0.43581,-1.57231 0.50605,-0.65398 1.20004,-0.96287 1.78116,-0.2836 0.0249,0.0288 0.34017,0.6363 0.34451,0.63397 0.01,-0.005 -0.47745,-0.84206 -0.5011,-0.92216 -0.1582,-0.53576 0.57555,-1.1562 1.05084,-1.23187 0.0218,-0.003 0.57616,0.1282 0.56952,-0.007 -0.01,-0.2004 -0.34397,-0.63299 -0.43846,-0.8069 -0.44153,-0.81252 -0.60711,-1.12475 -1.49773,-0.90959 -0.12837,0.031 -1.12224,0.4657 -1.16613,0.62402 -0.14492,0.52306 0.54682,1.53396 0.78008,1.96318 0.0934,0.17197 0.33677,0.84311 0.55661,0.89246 0.54586,0.12246 1.32097,-0.47095 1.6601,0.15312 0.16409,0.30198 -0.67142,1.61147 -1.07504,1.31925 -0.94129,-0.68152 0.80088,-1.47011 1.28295,-1.72809"
       inkscape:connector-curvature="0"
       inkscape:export-filename="/home/tsuname/Documents/hyperparamter.space/static/img/mechanistic_single_cell/xkcdcell.png"
       inkscape:export-xdpi="200"
       inkscape:export-ydpi="200" />
    <path
       style="fill:none;fill-rule:evenodd;stroke:#000000;stroke-width:0.80077106;stroke-linecap:butt;stroke-linejoin:miter;stroke-miterlimit:4;stroke-dasharray:none;stroke-opacity:1"
       d="m 402.00943,503.59531 c -0.59047,-0.15252 -1.10581,-0.57388 -1.3726,-1.12228 -0.20909,-0.42979 -0.2664,-0.9159 -0.30347,-1.39241 -0.0371,-0.47651 -0.058,-0.96042 -0.20309,-1.41582 -0.0987,-0.30998 -0.25265,-0.59887 -0.39049,-0.89356 -0.13785,-0.29468 -0.26158,-0.60198 -0.29352,-0.92574 -0.0556,-0.56348 0.16955,-1.11184 0.27032,-1.66901 0.0648,-0.35813 0.0746,-0.74332 -0.0869,-1.06946 -0.0807,-0.16307 -0.20446,-0.30696 -0.3618,-0.39838 -0.15734,-0.0914 -0.349,-0.12752 -0.52596,-0.0851 -0.15462,0.0371 -0.29256,0.13224 -0.3921,0.25623 -0.0995,0.12399 -0.16184,0.27553 -0.19098,0.43184 -0.0583,0.3126 0.013,0.6345 0.10663,0.9384 0.32914,1.06855 0.93875,2.05525 1.09394,3.16252 0.10228,0.72976 5.3e-4,1.47486 0.08,2.20745 0.0663,0.61146 0.25768,1.20248 0.47789,1.77675 0.0267,0.0696 0.0539,0.13937 0.0695,0.21225 0.0156,0.0729 0.0191,0.14971 -0.002,0.22131 -0.0219,0.0757 -0.0707,0.14278 -0.1342,0.18942 -0.0635,0.0466 -0.14112,0.073 -0.21976,0.0779 -0.0786,0.005 -0.1581,-0.0115 -0.22983,-0.044 -0.0717,-0.0326 -0.1358,-0.0812 -0.18896,-0.13931 -0.10631,-0.11629 -0.16749,-0.26836 -0.19645,-0.42324 -0.029,-0.15489 -0.0276,-0.31373 -0.0221,-0.47121 0.0181,-0.51911 0.0805,-1.03598 0.0963,-1.55516 0.0158,-0.51919 -0.0166,-1.04693 -0.1822,-1.53924 -0.17162,-0.51015 -0.47858,-0.96149 -0.76118,-1.41959 -0.28259,-0.45809 -0.54888,-0.94351 -0.62344,-1.47657 -0.0466,-0.33319 -0.0177,-0.68108 -0.13168,-0.9976 -0.057,-0.15827 -0.15177,-0.30669 -0.28845,-0.40473 -0.0684,-0.049 -0.14656,-0.0848 -0.22905,-0.10121 -0.0825,-0.0164 -0.16926,-0.013 -0.24927,0.0129 -0.0828,0.0268 -0.15715,0.0775 -0.21543,0.14212 -0.0583,0.0646 -0.10065,0.14292 -0.12669,0.22594 -0.0521,0.16606 -0.0386,0.34722 0.009,0.51473 0.0944,0.33502 0.31604,0.62179 0.4217,0.95344 0.11244,0.35293 0.0869,0.73321 0.0551,1.10225 -0.0318,0.36904 -0.068,0.74664 0.0249,1.1052 0.11778,0.45446 0.43096,0.83154 0.76251,1.16394 0.33154,0.33239 0.6941,0.64145 0.95328,1.03291 0.12959,0.19572 0.23199,0.41162 0.28127,0.64113 0.0493,0.22951 0.0437,0.4733 -0.0355,0.69427 -0.0792,0.22096 -0.23508,0.4172 -0.44238,0.52733 -0.10365,0.0551 -0.21911,0.0883 -0.33633,0.0943 -0.11722,0.006 -0.23605,-0.0156 -0.34262,-0.0648 -0.17984,-0.083 -0.31455,-0.23705 -0.45754,-0.37409 -0.23715,-0.22727 -0.50832,-0.41552 -0.76256,-0.6235 -1.30149,-1.06465 -2.14025,-2.67621 -2.26643,-4.35295 -0.12618,-1.67673 0.46175,-3.39536 1.58787,-4.64404 0.19822,-0.21979 0.41362,-0.42745 0.57169,-0.67767 0.079,-0.12511 0.14318,-0.26064 0.17889,-0.40425 0.0357,-0.14362 0.0423,-0.29569 0.008,-0.4397 -0.0402,-0.16996 -0.13693,-0.32482 -0.26661,-0.44181 -0.12968,-0.11699 -0.29136,-0.19659 -0.46145,-0.23624 -0.34019,-0.0793 -0.70328,0.002 -1.01271,0.16362 -0.32674,0.17115 -0.60391,0.43047 -0.81429,0.73345 -0.21039,0.30297 -0.35533,0.64877 -0.44503,1.00656 -0.17939,0.71556 -0.13942,1.46737 -0.0532,2.20003 0.21893,1.86144 0.7304,3.68817 1.50991,5.39265"
       id="path30393"
       inkscape:path-effect="#path-effect30395"
       inkscape:original-d="m 402.00943,503.59531 c -0.33823,-0.46624 -1.05749,-0.63794 -1.3726,-1.12228 -0.53135,-0.81666 -0.13427,-2.0294 -0.50656,-2.80823 -0.25265,-0.52848 -0.58301,-1.1748 -0.68401,-1.8193 -0.0703,-0.44902 0.0326,-1.30457 0.27032,-1.66901 0.0675,-0.10345 -0.85429,-1.57133 -0.97467,-1.55295 -0.60737,0.0928 -0.51191,1.40017 -0.47645,1.62647 0.18438,1.17667 0.95484,2.27488 1.09394,3.16252 0.11952,0.76234 -0.0425,1.42658 0.08,2.20745 0.0911,0.58133 0.38057,1.15573 0.47789,1.77675 0.0226,0.1446 0.14377,0.31736 0.0679,0.43356 -0.23229,0.3561 -0.66086,-0.54035 -0.99132,-0.81052 -0.66412,-0.54301 0.0603,-2.16087 -0.0859,-3.0944 -0.17925,-1.14387 -0.7918,-1.98496 -1.38462,-2.89616 -0.17191,-0.26421 -0.29321,-1.583 -0.89845,-1.4906 -0.29507,0.0451 0.1182,1.61778 0.0882,1.83623 -0.0652,0.47794 -0.0954,1.84048 0.08,2.20745 0.33445,0.6996 1.80325,3.9421 0.84024,4.08909 -0.0662,0.01 -0.40998,-0.33521 -0.45754,-0.37409 -0.18922,-0.15476 -0.6538,-0.39602 -0.76256,-0.6235 -0.8004,-1.67417 -1.15519,-7.25625 -0.67856,-8.99699 0.10459,-0.38221 0.822,-1.11844 0.75881,-1.52162 -0.0475,-0.30347 -0.83644,-0.65248 -1.74077,-0.51443 -1.00399,0.15329 -1.44566,3.09073 -1.31257,3.94004 0.29173,1.8616 1.54891,3.65191 1.50991,5.39265"
       inkscape:connector-curvature="0"
       sodipodi:nodetypes="csssssssssssssssssssssssc"
       inkscape:export-filename="/home/tsuname/Documents/hyperparamter.space/static/img/mechanistic_single_cell/xkcdcell.png"
       inkscape:export-xdpi="200"
       inkscape:export-ydpi="200" />
    <path
       style="fill:none;fill-rule:evenodd;stroke:#000000;stroke-width:0.80077106;stroke-linecap:butt;stroke-linejoin:miter;stroke-miterlimit:4;stroke-dasharray:none;stroke-opacity:1"
       d="m 413.4201,511.68427 c -0.4995,-0.1935 -0.91317,-0.59824 -1.11752,-1.0934 -0.20435,-0.49515 -0.19654,-1.07384 0.0211,-1.5633 0.21727,-0.48861 0.62055,-0.86809 0.90131,-1.32319 0.32453,-0.52604 0.48125,-1.14652 0.83926,-1.65038 0.44034,-0.61974 1.1834,-1.015 1.94356,-1.02686 0.76016,-0.0119 1.51788,0.36252 1.96476,0.97756 0.22856,0.31457 0.37525,0.6796 0.55628,1.02372 0.24677,0.46908 0.56025,0.90444 0.75856,1.39597 0.2404,0.59585 0.30075,1.26229 0.17602,1.89258 -0.12473,0.6303 -0.4335,1.22238 -0.87544,1.68876 -0.44195,0.46638 -1.01527,0.80603 -1.63538,0.97423 -0.62011,0.1682 -1.28514,0.16504 -1.90492,-0.004 -0.85143,-0.23274 -1.61197,-0.78338 -2.09887,-1.51961"
       id="path30397"
       inkscape:path-effect="#path-effect30399"
       inkscape:original-d="m 413.4201,511.68427 c -0.48889,-0.87782 -1.05035,-1.717 -1.09642,-2.6567 -0.0164,-0.32794 0.72062,-1.05791 0.90131,-1.32319 0.32265,-0.47369 0.43623,-1.21302 0.83926,-1.65038 1.21231,-1.31548 2.76485,-0.68221 3.90832,-0.0493 0.18594,0.10296 0.44025,0.81018 0.55628,1.02372 0.2158,0.39714 0.67667,0.96426 0.75856,1.39597 0.26266,1.38505 -2.70427,4.53181 -4.23972,4.55119 -1.27861,0.0164 -1.01958,-0.99674 -2.09887,-1.51961"
       inkscape:connector-curvature="0"
       inkscape:export-filename="/home/tsuname/Documents/hyperparamter.space/static/img/mechanistic_single_cell/xkcdcell.png"
       inkscape:export-xdpi="200"
       inkscape:export-ydpi="200" />
    <path
       style="fill:none;fill-rule:evenodd;stroke:#000000;stroke-width:0.80077106;stroke-linecap:butt;stroke-linejoin:miter;stroke-miterlimit:4;stroke-dasharray:none;stroke-opacity:1"
       d="m 414.50755,511.3426 c 0.0922,0.12523 0.22081,0.22331 0.36597,0.27908 0.14517,0.0558 0.30637,0.069 0.4587,0.0377 0.15232,-0.0313 0.29524,-0.10705 0.40665,-0.21554 0.11141,-0.10848 0.19094,-0.24933 0.22628,-0.40077 0.0344,-0.14743 0.0271,-0.30326 -0.0124,-0.44941 -0.0395,-0.14615 -0.11054,-0.28281 -0.20032,-0.40471 -0.17957,-0.24379 -0.42974,-0.42581 -0.6861,-0.58692 -0.18047,-0.11342 -0.36975,-0.22155 -0.50822,-0.3836 -0.0692,-0.081 -0.12462,-0.17525 -0.15202,-0.27824 -0.0274,-0.10299 -0.0256,-0.21508 0.0143,-0.31389 0.0531,-0.13132 0.17159,-0.23095 0.30609,-0.27536 0.13451,-0.0444 0.28301,-0.0367 0.41792,0.006 0.13491,0.0432 0.2571,0.12023 0.36553,0.21137 0.10843,0.0912 0.20401,0.19644 0.29757,0.30278 0.18713,0.2127 0.37628,0.43779 0.6335,0.5565 0.12861,0.0594 0.27293,0.0895 0.41329,0.0705 0.14037,-0.019 0.2759,-0.0902 0.35932,-0.20465 0.0781,-0.10715 0.10642,-0.24651 0.0886,-0.37789 -0.0178,-0.13138 -0.0795,-0.25465 -0.16457,-0.35639 -0.17003,-0.20348 -0.4223,-0.31746 -0.67012,-0.41179 -0.24783,-0.0943 -0.50582,-0.17868 -0.71407,-0.34284 -0.10413,-0.0821 -0.19429,-0.18408 -0.25145,-0.30371 -0.0572,-0.11963 -0.0799,-0.25761 -0.0515,-0.38713 0.0222,-0.10164 0.0757,-0.19621 0.15139,-0.26764 0.0756,-0.0714 0.17315,-0.11939 0.27589,-0.13575 0.10275,-0.0163 0.21032,-0.001 0.30442,0.0434 0.0941,0.0444 0.17431,0.11768 0.22701,0.20739"
       id="path30401"
       inkscape:path-effect="#path-effect30403"
       inkscape:original-d="m 414.50755,511.3426 c 0.21832,0.042 1.33484,0.14328 1.4576,-0.2995 0.0936,-0.33777 -0.81428,-1.28553 -0.89881,-1.44104 -0.0639,-0.11771 -0.58976,-1.00581 -0.64594,-0.97573 -0.58671,0.31396 2.59322,1.38912 2.79322,0.66753 0.14001,-0.50536 -1.68285,-2.22272 -1.76316,-2.17975 -0.28354,0.15164 0.67515,-10e-4 0.95871,-0.15263"
       inkscape:connector-curvature="0"
       inkscape:export-filename="/home/tsuname/Documents/hyperparamter.space/static/img/mechanistic_single_cell/xkcdcell.png"
       inkscape:export-xdpi="200"
       inkscape:export-ydpi="200" />
    <path
       style="fill:none;fill-rule:evenodd;stroke:#000000;stroke-width:0.80077106;stroke-linecap:butt;stroke-linejoin:miter;stroke-miterlimit:4;stroke-dasharray:none;stroke-opacity:1"
       d="m 370.43372,500.13261 c 7.73724,-5.72201 16.21271,-10.44464 25.14962,-14.01366 6.22337,-2.48535 12.65372,-4.40844 19.06597,-6.35532 3.46254,-1.05129 6.92268,-2.11052 10.38037,-3.17766"
       id="path30405"
       inkscape:path-effect="#path-effect30407"
       inkscape:original-d="m 370.43372,500.13261 c 8.12673,-5.17684 16.29862,-9.79888 25.14962,-14.01366 5.94803,-2.83239 12.87629,-4.03419 19.06597,-6.35532 1.58672,-0.59502 9.89917,-2.69646 10.38037,-3.17766"
       inkscape:connector-curvature="0"
       sodipodi:nodetypes="cssc"
       inkscape:export-filename="/home/tsuname/Documents/hyperparamter.space/static/img/mechanistic_single_cell/xkcdcell.png"
       inkscape:export-xdpi="200"
       inkscape:export-ydpi="200" />
    <path
       style="fill:#1a1a1a;fill-rule:evenodd;stroke:#000000;stroke-width:0.80077106;stroke-linecap:butt;stroke-linejoin:miter;stroke-miterlimit:4;stroke-dasharray:none;stroke-opacity:1"
       d="m 379.11604,494.4026 c -0.1245,0.072 -0.26813,0.11052 -0.41194,0.11052 -0.14381,0 -0.28744,-0.0385 -0.41194,-0.11052 -0.12583,-0.0728 -0.23082,-0.17826 -0.31453,-0.29709 -0.0837,-0.11882 -0.14693,-0.25096 -0.20017,-0.38622 -0.10648,-0.2705 -0.17497,-0.55678 -0.30918,-0.81465 -0.15652,-0.30073 -0.39814,-0.55205 -0.6741,-0.74898 -0.2934,-0.20937 -0.62769,-0.36159 -0.89875,-0.59919 -0.42362,-0.37132 -0.65823,-0.93486 -0.67411,-1.49796 -0.005,-0.17204 0.009,-0.34505 -0.012,-0.51584 -0.0106,-0.0854 -0.0302,-0.17013 -0.0644,-0.24908 -0.0342,-0.079 -0.0835,-0.15213 -0.14826,-0.20876 -0.0836,-0.0731 -0.18906,-0.1158 -0.28044,-0.17888 -0.0457,-0.0315 -0.0883,-0.0687 -0.11977,-0.11439 -0.0315,-0.0457 -0.0514,-0.10065 -0.0492,-0.15612 10e-4,-0.0253 0.007,-0.0502 0.009,-0.0754 0.002,-0.0252 0.002,-0.0516 -0.009,-0.0745 -0.01,-0.0209 -0.0274,-0.0374 -0.047,-0.0495 -0.0196,-0.0121 -0.0414,-0.0202 -0.0632,-0.028 -0.0217,-0.008 -0.0437,-0.0153 -0.0639,-0.0264 -0.0202,-0.0111 -0.0388,-0.0261 -0.0507,-0.0459 -0.01,-0.0164 -0.0146,-0.0354 -0.0159,-0.0544 -0.001,-0.019 6.7e-4,-0.0381 0.004,-0.0569 0.006,-0.0376 0.0162,-0.0754 0.0122,-0.11333 -0.005,-0.0454 -0.0298,-0.0868 -0.0621,-0.11895 -0.0324,-0.0322 -0.0719,-0.0561 -0.11164,-0.0784 -0.0398,-0.0224 -0.0805,-0.0436 -0.11664,-0.0714 -0.0362,-0.0278 -0.0681,-0.063 -0.0841,-0.10573 -0.0177,-0.0471 -0.0148,-0.0993 -0.009,-0.14927 0.006,-0.05 0.015,-0.10039 0.009,-0.15033 -0.007,-0.0558 -0.0329,-0.1075 -0.0622,-0.15547 -0.0294,-0.048 -0.0628,-0.0936 -0.0876,-0.14411 -0.0438,-0.089 -0.0592,-0.19091 -0.0486,-0.28951 0.0106,-0.0986 0.0466,-0.19379 0.0998,-0.27751 0.10631,-0.16743 0.2773,-0.28553 0.45972,-0.36337 0.36484,-0.15567 0.78206,-0.16556 1.13689,-0.34288 0.38174,-0.19076 0.64565,-0.55092 0.97367,-0.8239 0.52817,-0.43954 1.22274,-0.65203 1.72266,-1.12345 0.15421,-0.14541 0.28707,-0.31313 0.4494,-0.44941 0.19775,-0.16602 0.43359,-0.28053 0.67409,-0.37448 0.46348,-0.18105 0.9513,-0.29121 1.42307,-0.44939 0.47839,-0.1604 0.9437,-0.37244 1.34817,-0.67409 0.15635,-0.1166 0.30273,-0.2459 0.44937,-0.37449 0.78422,-0.68769 1.59564,-1.36897 2.54655,-1.79755 0.50439,-0.22733 1.03897,-0.37922 1.57286,-0.52428 0.6525,-0.17729 1.32416,-0.35334 1.87247,-0.749 0.30424,-0.21954 0.56476,-0.50316 0.89875,-0.67407 0.16932,-0.0866 0.3531,-0.14182 0.5243,-0.2247 0.2949,-0.14277 0.54368,-0.36304 0.79938,-0.56789 0.2557,-0.20485 0.53063,-0.40082 0.84839,-0.48069 0.29525,-0.0742 0.61327,-0.0442 0.89877,-0.14984 0.22162,-0.082 0.40548,-0.23915 0.59919,-0.37449 0.92709,-0.64775 2.11697,-0.81542 3.07083,-1.42307 0.28647,-0.18249 0.54727,-0.40208 0.82388,-0.59919 0.88432,-0.63018 1.91282,-1.01975 2.92103,-1.42307 0.91704,-0.36685 1.85846,-0.75679 2.84613,-0.74897 0.45062,0.004 0.90667,0.0902 1.34818,0 0.52812,-0.10796 0.97781,-0.45776 1.49796,-0.5992 0.36497,-0.0992 0.74969,-0.0919 1.12346,-0.14984 0.55318,-0.0857 1.08819,-0.31469 1.64776,-0.29959 0.16333,0.004 0.32534,0.0297 0.48831,0.0413 0.16298,0.0115 0.32985,0.009 0.48537,-0.0413 0.25856,-0.0833 0.45714,-0.28593 0.67409,-0.44939 0.22243,-0.16759 0.47488,-0.29675 0.74399,-0.36845 0.2691,-0.0717 0.55038,-0.0809 0.82888,-0.0809 l 0.82387,0 c 0.0403,0 0.0811,-0.003 0.11874,-0.0173 0.0377,-0.0142 0.071,-0.0375 0.10595,-0.0576 0.12192,-0.07 0.26925,-0.0916 0.40784,-0.0679 0.13859,0.0237 0.26814,0.0912 0.37299,0.18488 0.2097,0.18735 0.31482,0.46913 0.34691,0.74848 0.0321,0.27936 -0.001,0.56149 -0.0263,0.84156 -0.0252,0.28007 -0.0419,0.56574 0.0221,0.83956 0.10238,0.43808 0.40074,0.8032 0.71989,1.12028 0.31915,0.31707 0.67117,0.60739 0.92786,0.97686 0.25603,0.36852 0.40524,0.79853 0.56418,1.21817 0.15894,0.41964 0.33589,0.84337 0.6342,1.17858 0.11738,0.13191 0.25159,0.24771 0.37449,0.37449 0.36198,0.37339 0.62318,0.84357 0.74898,1.34817"
       id="path30513"
       inkscape:path-effect="#path-effect30515"
       inkscape:original-d="m 379.11604,494.4026 c 0.0148,-1.22817 -0.57825,0.12279 -0.82388,0 -0.0185,-0.01 -0.73303,-1.3617 -0.82388,-1.49796 -0.17927,-0.26892 -0.45045,-0.52533 -0.6741,-0.74898 -0.22932,-0.22932 -0.7383,-0.27828 -0.89875,-0.59919 -0.2447,-0.48936 -0.50524,-0.99138 -0.67411,-1.49796 -0.0521,-0.15656 -0.14558,-0.89459 -0.22468,-0.97368 -0.12935,-0.12935 -0.3359,-0.22238 -0.4494,-0.44939 -0.0223,-0.0448 0.0354,-0.11443 0,-0.14984 -0.049,-0.0492 -0.18715,-0.1123 -0.22468,-0.14985 -0.0375,-0.0375 0.0374,-0.18723 0,-0.22468 -0.10672,-0.10672 -0.26473,-0.15492 -0.3745,-0.37449 -0.0398,-0.0798 0.0398,-0.21969 0,-0.2996 -0.0218,-0.0434 -0.20199,-0.2474 -0.14985,-0.29958 0.46699,-0.46699 1.10206,-0.90947 1.64776,-1.27327 0.33867,-0.22578 0.70139,-0.55161 0.97367,-0.8239 0.40209,-0.40205 1.36414,-0.76493 1.72266,-1.12345 0.12738,-0.12738 0.25652,-0.38511 0.4494,-0.44941 0.22592,-0.0754 0.45688,-0.30208 0.67409,-0.37448 0.46195,-0.15394 0.96645,-0.29719 1.42307,-0.44939 0.44828,-0.14951 0.87062,-0.5149 1.34817,-0.67409 0.17161,-0.0572 0.30866,-0.26896 0.44937,-0.37449 0.84225,-0.63168 1.72984,-1.18503 2.54655,-1.79755 0.38788,-0.29093 1.12022,-0.43377 1.57286,-0.52428 0.63137,-0.12623 1.25693,-0.59512 1.87247,-0.749 0.36444,-0.0912 0.60323,-0.47705 0.89875,-0.67407 0.15411,-0.10279 0.39297,-0.13706 0.5243,-0.2247 0.49386,-0.32924 1.05244,-0.89975 1.64777,-1.04858 0.29468,-0.0736 0.60827,-0.0529 0.89877,-0.14984 0.22949,-0.0766 0.37922,-0.31951 0.59919,-0.37449 1.0584,-0.2646 2.13966,-0.9575 3.07083,-1.42307 0.29174,-0.14591 0.55367,-0.41905 0.82388,-0.59919 0.40511,-0.27008 2.52889,-1.34463 2.92103,-1.42307 0.96688,-0.19337 1.90104,-0.51269 2.84613,-0.74897 0.41378,-0.10344 0.94444,0.1346 1.34818,0 0.54297,-0.181 0.92997,-0.45719 1.49796,-0.5992 0.35716,-0.0894 0.77597,-0.0339 1.12346,-0.14984 0.53182,-0.17727 1.13892,-0.17237 1.64776,-0.29959 0.30031,-0.0751 0.68105,0.0976 0.97368,0 0.25447,-0.0849 0.53053,-0.30583 0.67409,-0.44939 0.0852,-0.0853 1.42509,-0.44938 1.57287,-0.44938 0.27461,0 0.54925,0 0.82387,0 0.0838,0 0.21271,-0.0869 0.22469,-0.0749 0.13017,0.13017 1.00403,2.24791 1.12349,2.54656 0.34352,0.85883 1.28961,1.38085 1.64775,2.09714 0.39828,0.79656 0.84343,1.68682 1.19838,2.39675 0.0649,0.12984 0.26801,0.21475 0.37449,0.37449 0.29701,0.4455 0.40221,1.00139 0.74898,1.34817"
       inkscape:connector-curvature="0"
       inkscape:export-filename="/home/tsuname/Documents/hyperparamter.space/static/img/mechanistic_single_cell/xkcdcell.png"
       inkscape:export-xdpi="200"
       inkscape:export-ydpi="200" />
    <path
       style="fill:none;fill-rule:evenodd;stroke:#000000;stroke-width:0.80077106;stroke-linecap:butt;stroke-linejoin:miter;stroke-miterlimit:4;stroke-dasharray:none;stroke-opacity:1"
       d="m 405.9393,521.542 c -0.87465,-0.18648 -1.75888,-0.32796 -2.64805,-0.42369 -0.31387,-0.0338 -0.63119,-0.0625 -0.93195,-0.15838 -0.30076,-0.0959 -0.58849,-0.26694 -0.76281,-0.53013 -0.10157,-0.15336 -0.16063,-0.33149 -0.19663,-0.51187 -0.036,-0.18039 -0.05,-0.36431 -0.0682,-0.54735 -0.0404,-0.40634 -0.10153,-0.82256 0,-1.21809 0.11486,-0.44747 0.43355,-0.82539 0.82139,-1.0764 0.38784,-0.25101 0.84114,-0.3849 1.29706,-0.45948 0.56013,-0.0916 1.13567,-0.0979 1.69474,0 0.47131,0.0825 0.93502,0.24159 1.32777,0.51488 0.39275,0.27329 0.71104,0.66718 0.84364,1.12692 0.11817,0.4097 0.0859,0.84513 0.1059,1.27106 0.0166,0.35377 0.0698,0.712 0,1.05923 -0.0717,0.35707 -0.27668,0.68577 -0.56571,0.90736 -0.28904,0.2216 -0.65967,0.33417 -1.02312,0.31075"
       id="path30537"
       inkscape:path-effect="#path-effect30539"
       inkscape:original-d="m 405.9393,521.542 c -0.94358,0.10229 -1.77733,-0.10706 -2.64805,-0.42369 -0.22447,-0.0816 -1.60608,-0.59983 -1.69476,-0.68851 -0.27688,-0.27687 -0.2648,-0.70243 -0.2648,-1.05922 0,-0.34378 -0.10754,-0.89516 0,-1.21809 0.14001,-0.42023 1.66412,-1.46016 2.11845,-1.53588 0.37101,-0.0618 1.32382,-0.0743 1.69474,0 0.29479,0.059 2.03501,1.369 2.17141,1.6418 0.16407,0.32814 0.1059,0.88636 0.1059,1.27106 0,0.24329 0.11443,0.83041 0,1.05923 -0.34924,0.69848 -1.256,0.38599 -1.58883,1.21811"
       inkscape:connector-curvature="0"
       inkscape:export-filename="/home/tsuname/Documents/hyperparamter.space/static/img/mechanistic_single_cell/xkcdcell.png"
       inkscape:export-xdpi="200"
       inkscape:export-ydpi="200" />
    <path
       style="fill:none;fill-rule:evenodd;stroke:#000000;stroke-width:0.80077106;stroke-linecap:butt;stroke-linejoin:miter;stroke-miterlimit:4;stroke-dasharray:none;stroke-opacity:1"
       d="m 402.44387,518.57618 c 0.0731,-0.1019 0.16291,-0.19174 0.26481,-0.26482 0.12602,-0.0904 0.27386,-0.15574 0.42874,-0.16371 0.0774,-0.004 0.15591,0.007 0.2285,0.0338 0.0726,0.0273 0.13916,0.0715 0.19014,0.12988 0.0872,0.0999 0.12439,0.23605 0.12581,0.36864 0.001,0.13258 -0.03,0.26324 -0.0663,0.39079 -0.0362,0.12754 -0.0776,0.25429 -0.0968,0.38549 -0.0192,0.1312 -0.0151,0.26911 0.0372,0.39096 0.0351,0.0817 0.0941,0.15636 0.17511,0.19301 0.0405,0.0183 0.0858,0.0266 0.12997,0.0214 0.0441,-0.005 0.0869,-0.0244 0.11859,-0.0555 0.0343,-0.0337 0.0543,-0.0794 0.068,-0.12555 0.0138,-0.0461 0.0222,-0.0938 0.0379,-0.13926 0.0416,-0.1211 0.13081,-0.21863 0.21186,-0.31777 0.24819,-0.3036 0.43735,-0.65212 0.68848,-0.9533 0.0473,-0.0568 0.0992,-0.11347 0.16728,-0.14207 0.0341,-0.0143 0.0718,-0.021 0.10836,-0.0157 0.0366,0.005 0.0718,0.0232 0.0951,0.0518 0.0146,0.0179 0.0242,0.0395 0.0294,0.062 0.005,0.0225 0.006,0.0458 0.004,0.0688 -0.004,0.0459 -0.0195,0.09 -0.0333,0.13403 -0.12302,0.39354 -0.12302,0.82457 0,1.21811 l 0.52961,0.10591"
       id="path30541"
       inkscape:path-effect="#path-effect30543"
       inkscape:original-d="m 402.44387,518.57618 c -0.0435,-0.21959 0.0682,-0.26482 0.26481,-0.26482 0.12853,0 0.76392,-0.0834 0.84738,0 0.12771,0.12771 -0.11853,1.29879 0,1.53588 0.0326,0.0652 0.29149,0.29108 0.42367,0.15886 0.0851,-0.0851 0.0811,-0.1657 0.10591,-0.26481 0.0316,-0.12673 0.15394,-0.2018 0.21186,-0.31777 0.22166,-0.44336 0.26081,-0.81074 0.68848,-0.9533 0.0631,-0.021 0.27657,-0.20009 0.37074,-0.10591 0.0264,0.0262 0,0.2276 0,0.2648 0,0.0818 -10e-4,1.21733 0,1.21811 0.11132,0.11132 0.36596,0.10591 0.52961,0.10591"
       inkscape:connector-curvature="0"
       inkscape:export-filename="/home/tsuname/Documents/hyperparamter.space/static/img/mechanistic_single_cell/xkcdcell.png"
       inkscape:export-xdpi="200"
       inkscape:export-ydpi="200" />
    <path
       style="fill:none;fill-rule:evenodd;stroke:#000000;stroke-width:0.80077106;stroke-linecap:butt;stroke-linejoin:miter;stroke-miterlimit:4;stroke-dasharray:none;stroke-opacity:1"
       d="m 383.98443,491.55647 c 0.26458,0.71979 0.41677,1.48077 0.44938,2.24696 0.0351,0.82424 -0.0593,1.64792 -0.0914,2.47228 -0.0322,0.82436 0.0138,1.64966 0.0914,2.47099 l 0.89879,9.51207 c 0.1186,1.25513 0.16472,2.52669 -0.0542,3.76826 -0.21891,1.24157 -0.66232,2.43046 -0.99438,3.64667 -0.27116,0.99316 -0.45669,2.0088 -0.74898,2.99594 -0.43469,1.46808 -1.10105,2.85846 -1.55546,4.32056 -0.45441,1.4621 -0.68988,3.0533 -0.24211,4.51744 0.29451,0.96299 0.86541,1.81256 1.34817,2.69632 0.68702,1.25768 1.21223,2.61767 2.09715,3.74491 0.33055,0.42107 0.7181,0.81213 1.19837,1.04857 0.47708,0.23487 1.01911,0.3042 1.55077,0.31436 0.53167,0.0102 1.0636,-0.0353 1.59496,-0.0148 1.37185,0.0531 2.68723,0.54258 4.0445,0.74898 1.63131,0.24808 3.29322,0.14984 4.94328,0.14984 l 8.08902,0 c 1.19861,0 2.39899,0.0771 3.59512,0 1.50893,-0.0972 2.98392,-0.51982 4.4939,-0.59917 1.00686,-0.0529 2.04766,0.043 2.99592,-0.2996 0.54918,-0.19841 1.03652,-0.5344 1.51135,-0.87426 0.47484,-0.33987 0.94919,-0.69019 1.48458,-0.92329 0.71178,-0.30989 1.4971,-0.39821 2.24694,-0.5992 1.58205,-0.42405 2.97972,-1.34075 4.3441,-2.24694 0.58063,-0.38564 1.1627,-0.77338 1.68799,-1.23155 0.52529,-0.45817 0.99528,-0.99161 1.30795,-1.61458 0.18151,-0.36163 0.31528,-0.76026 0.59917,-1.04858 0.22072,-0.22416 0.51337,-0.36118 0.80396,-0.48169 0.29059,-0.1205 0.5899,-0.23136 0.84381,-0.41708 0.37494,-0.27425 0.62455,-0.69814 0.74187,-1.14761 0.11733,-0.44948 0.11013,-0.92408 0.0409,-1.38343 -0.13855,-0.91868 -0.51899,-1.78978 -0.63289,-2.71184 -0.14907,-1.20684 0.16556,-2.41528 0.37793,-3.61261 0.10618,-0.59866 0.18735,-1.20493 0.17196,-1.81275 -0.0154,-0.60781 -0.13038,-1.21995 -0.40005,-1.76488 -0.40004,-0.80838 -1.11686,-1.42946 -1.49796,-2.24694 -0.24143,-0.51787 -0.33637,-1.08975 -0.43415,-1.6527 -0.0978,-0.56295 -0.20395,-1.13437 -0.46462,-1.64283 -0.33222,-0.64804 -0.89073,-1.14709 -1.44986,-1.61368 -0.55913,-0.46659 -1.14101,-0.92686 -1.54607,-1.53205 -0.42796,-0.6394 -0.63097,-1.39972 -0.80668,-2.1488 -0.17572,-0.74907 -0.33491,-1.5134 -0.69128,-2.1953 -0.41744,-0.79874 -1.08585,-1.44542 -1.49796,-2.24692 -0.28493,-0.55415 -0.44003,-1.17454 -0.44942,-1.79758 l -0.74896,-1.04857 c -0.59323,-0.44789 -1.14553,-0.94997 -1.64777,-1.49795 -0.56551,-0.61702 -1.07492,-1.30606 -1.34816,-2.09717 -0.14492,-0.41958 -0.22052,-0.85922 -0.31584,-1.29276 -0.0953,-0.43354 -0.21309,-0.86824 -0.43314,-1.25376 -0.23163,-0.40579 -0.56671,-0.74043 -0.8813,-1.0859 -0.31459,-0.34548 -0.61866,-0.71781 -0.76647,-1.16106 -0.0652,-0.19538 -0.0982,-0.39981 -0.14985,-0.59919 -0.15171,-0.58566 -0.4601,-1.1162 -0.74898,-1.64777 -0.63762,-1.17332 -1.20362,-2.41736 -1.34816,-3.7449 -0.0487,-0.44762 -0.0487,-0.90054 0,-1.34816"
       id="path30545"
       inkscape:path-effect="#path-effect30547"
       inkscape:original-d="m 383.98443,491.55647 c -0.13574,0.95968 0.0835,1.51506 0.44938,2.24696 0.34137,0.68273 -0.0797,4.09999 0,4.94327 l 0.89879,9.51207 c 0.11246,1.191 -0.69711,6.36053 -1.04858,7.41493 -0.30438,0.91309 -0.43553,2.05556 -0.74898,2.99594 -0.93655,2.8096 -2.21196,5.52285 -1.79757,8.838 0.11739,0.93876 0.95186,1.85413 1.34817,2.69632 0.60486,1.28529 1.12891,2.66908 2.09715,3.74491 0.35508,0.39454 0.75673,0.75416 1.19837,1.04857 0.0554,0.0369 2.85939,0.26381 3.14573,0.2996 1.37273,0.1716 2.71176,0.48243 4.0445,0.74898 1.48086,0.29617 3.41382,0.14984 4.94328,0.14984 l 8.08902,0 c 1.16612,0 2.44144,0.14427 3.59512,0 1.50494,-0.18812 2.99407,-0.4117 4.4939,-0.59917 0.99733,-0.12476 2.02112,-0.0559 2.99592,-0.2996 1.13827,-0.28457 1.99171,-1.29545 2.99593,-1.79755 0.71095,-0.35549 1.53286,-0.31355 2.24694,-0.5992 0.57594,-0.23037 3.86307,-1.88616 4.3441,-2.24694 1.12475,-0.84357 2.18489,-1.76476 2.99594,-2.84613 0.20239,-0.26988 0.39306,-0.84246 0.59917,-1.04858 0.24004,-0.24004 1.25982,-0.31686 1.64777,-0.89877 0.25106,-0.37659 -0.0613,-4.39801 0.14984,-5.24288 0.28634,-1.14535 0.39059,-6.46789 0.14984,-7.19024 -0.25004,-0.75013 -1.15386,-1.44406 -1.49796,-2.24694 -0.444,-1.03601 -0.45478,-2.25952 -0.89877,-3.29553 -0.55538,-1.29587 -2.26125,-1.92125 -2.99593,-3.14573 -0.78464,-1.3077 -0.81625,-2.98067 -1.49796,-4.3441 -0.4185,-0.83697 -1.1732,-1.43499 -1.49796,-2.24692 -0.22159,-0.55396 -0.3759,-1.20949 -0.44942,-1.79758 0.0553,-0.92433 0.10985,-1.10886 -0.74896,-1.04857 -0.18469,-0.0925 -1.50229,-1.27975 -1.64777,-1.49795 -0.37126,-0.55691 -1.19031,-1.46573 -1.34816,-2.09717 -0.1918,-0.76713 -0.39932,-1.84718 -0.74898,-2.54652 -0.3562,-0.71238 -1.15553,-1.75471 -1.64777,-2.24696 -0.2829,-0.2829 -0.0707,-0.28276 -0.14985,-0.59919 -0.14623,-0.58527 -0.55548,-1.06725 -0.74898,-1.64777 -0.52361,-1.57081 -0.39254,-2.78928 -1.34816,-3.7449 -0.13657,-0.13656 0,-1.13361 0,-1.34816"
       inkscape:connector-curvature="0"
       sodipodi:nodetypes="csssssssscssssssssssssssssssssccsssssssc"
       inkscape:export-filename="/home/tsuname/Documents/hyperparamter.space/static/img/mechanistic_single_cell/xkcdcell.png"
       inkscape:export-xdpi="200"
       inkscape:export-ydpi="200" />
    <path
       style="fill:none;fill-rule:evenodd;stroke:#000000;stroke-width:0.80077106;stroke-linecap:butt;stroke-linejoin:miter;stroke-miterlimit:4;stroke-dasharray:none;stroke-opacity:1"
       d="m 385.3326,492.30545 c 0.15136,1.40445 0.35124,2.80366 0.59917,4.19431 0.0724,0.40604 0.14966,0.81414 0.2996,1.19836 0.22768,0.58343 0.61398,1.08999 0.89879,1.64777 0.54589,1.0691 0.70379,2.30324 0.63733,3.5018 -0.0665,1.19857 -0.34665,2.37395 -0.63733,3.53863 -0.11156,0.44697 -0.22533,0.89664 -0.25395,1.35643 -0.0286,0.4598 0.0329,0.93573 0.25395,1.33991 0.0864,0.15805 0.19553,0.30233 0.29958,0.44939 0.85467,1.20794 1.38733,2.65799 1.4197,4.13736 0.0324,1.47938 -0.45305,2.98109 -1.4197,4.10144 -0.32811,0.38028 -0.7089,0.71688 -0.99592,1.12905 -0.14351,0.20609 -0.26285,0.4312 -0.33084,0.67295 -0.068,0.24176 -0.0831,0.5011 -0.0214,0.74454 0.074,0.29223 0.25491,0.5532 0.29786,0.85159 0.0215,0.1492 0.005,0.3083 -0.0727,0.43731 -0.039,0.0645 -0.093,0.12036 -0.15823,0.15817 -0.0652,0.0378 -0.14163,0.0571 -0.21674,0.0509 -0.0512,-0.004 -0.10072,-0.0198 -0.15161,-0.0265 -0.0254,-0.003 -0.0514,-0.004 -0.0768,-7.6e-4 -0.0254,0.004 -0.0503,0.0124 -0.0712,0.0273 -0.0324,0.0232 -0.0532,0.0604 -0.0617,0.0993 -0.008,0.0389 -0.006,0.0797 0.002,0.11869 0.0161,0.0781 0.0524,0.15191 0.0592,0.23135 0.006,0.065 -0.009,0.13075 -0.0367,0.18985 -0.0275,0.0591 -0.0674,0.11182 -0.11265,0.15878 -0.0904,0.0939 -0.20149,0.16514 -0.3,0.25056 -0.29649,0.25712 -0.46832,0.63745 -0.52673,1.02552 -0.0584,0.38808 -0.0114,0.78522 0.0741,1.16824 0.17096,0.76605 0.49708,1.51648 0.45264,2.30012 -0.0232,0.40962 -0.14769,0.80649 -0.20366,1.21293 -0.028,0.20322 -0.0387,0.41015 -0.0109,0.61339 0.0279,0.20323 0.0956,0.40327 0.21453,0.57045 0.19722,0.27736 0.51617,0.44207 0.83661,0.55671 0.32043,0.11465 0.65624,0.19049 0.96095,0.34206 0.49634,0.24689 0.87364,0.6749 1.24858,1.08323 0.37495,0.40832 0.77884,0.81943 1.29796,1.01392 0.23921,0.0896 0.49435,0.12943 0.74898,0.14984 0.77558,0.0621 1.55284,-0.0509 2.32757,-0.12289 0.77474,-0.072 1.57091,-0.10084 2.31612,0.12289 0.80065,0.24038 1.48636,0.75456 2.23545,1.12559 0.37455,0.18552 0.77063,0.33683 1.18474,0.39357 0.4141,0.0567 0.84889,0.0144 1.22352,-0.17098 0.32307,-0.15984 0.58771,-0.41707 0.89877,-0.59919 0.35443,-0.2075 0.7607,-0.31219 1.16783,-0.36626 0.40713,-0.0541 0.81888,-0.0598 1.22892,-0.0831 1.33011,-0.0756 2.64194,-0.33595 3.96361,-0.50355 1.32167,-0.1676 2.67643,-0.24091 3.9756,0.0542 0.7686,0.17456 1.50876,0.47617 2.28981,0.58196 0.39052,0.0529 0.79124,0.0555 1.17546,-0.0321 0.38422,-0.0876 0.75202,-0.26917 1.02862,-0.54988 0.0996,-0.10105 0.18648,-0.21372 0.28034,-0.32008 0.0939,-0.10637 0.19627,-0.20766 0.31883,-0.27911 0.17888,-0.10429 0.38895,-0.13869 0.59424,-0.16567 0.20529,-0.027 0.41509,-0.0495 0.60414,-0.13392 0.29322,-0.13101 0.50182,-0.39411 0.74898,-0.59918 0.45313,-0.37597 1.03525,-0.55493 1.60789,-0.69192 0.57264,-0.137 1.16074,-0.24368 1.68765,-0.50646 0.57489,-0.28672 1.04462,-0.7432 1.49796,-1.19837 0.76032,-0.76338 1.53831,-1.56744 2.54652,-1.94736 0.2319,-0.0874 0.47229,-0.15059 0.70489,-0.2361 0.2326,-0.0855 0.46059,-0.19564 0.6433,-0.36307 0.1718,-0.15743 0.29714,-0.35991 0.39302,-0.57228 0.0959,-0.21237 0.16405,-0.43595 0.23636,-0.65747 0.0723,-0.22151 0.14957,-0.44283 0.26198,-0.64694 0.11241,-0.20411 0.26229,-0.39176 0.4568,-0.52007 0.21891,-0.14441 0.48018,-0.20595 0.72659,-0.29571 0.12321,-0.0449 0.24442,-0.0977 0.35331,-0.17076 0.10889,-0.0731 0.20549,-0.16738 0.26827,-0.2825 0.0855,-0.15679 0.10351,-0.34259 0.0895,-0.52064 -0.014,-0.17804 -0.058,-0.35215 -0.0895,-0.52794 -0.16464,-0.91787 0.0111,-1.85748 0.14008,-2.78104 0.12898,-0.92356 0.20573,-1.89539 -0.14008,-2.76142 -0.20134,-0.50424 -0.53611,-0.94412 -0.89879,-1.34818 -0.3078,-0.34292 -0.64019,-0.66717 -0.89877,-1.04857 -0.3212,-0.47377 -0.51891,-1.02378 -0.62753,-1.58577 -0.10862,-0.56199 -0.13066,-1.13743 -0.12147,-1.70975 0.003,-0.19975 0.0102,-0.39968 0,-0.59919 -0.0324,-0.63384 -0.23669,-1.24638 -0.4782,-1.83329 -0.24151,-0.58692 -0.52241,-1.15876 -0.72016,-1.76183 -0.29948,-0.91329 -0.40235,-1.8905 -0.2996,-2.84613 -0.18689,-0.93125 -0.48954,-1.8392 -0.89877,-2.69633 -0.96213,-2.01516 -2.48246,-3.70054 -3.74492,-5.54248 -1.29267,-1.88603 -2.32364,-3.95621 -2.99592,-6.14165 -0.35311,-1.14787 -0.60814,-2.32803 -1.04856,-3.44531 -0.12309,-0.31226 -0.26142,-0.62073 -0.44941,-0.89879 -0.33712,-0.49866 -0.8199,-0.88011 -1.19836,-1.34817 -0.48405,-0.59866 -0.78993,-1.33959 -0.86915,-2.10538 -0.0792,-0.76578 0.0685,-1.55364 0.41975,-2.23871"
       id="path30553"
       inkscape:path-effect="#path-effect30555"
       inkscape:original-d="m 385.3326,492.30545 c 0.27066,0.55704 0.29998,3.59593 0.59917,4.19431 0.14263,0.28509 0.0705,0.96917 0.2996,1.19836 0.31754,0.31755 0.67242,1.19504 0.89879,1.64777 0.27858,0.55717 0,5.90196 0,7.04043 0,0.84351 -0.16414,1.8757 0,2.69634 0.0354,0.17653 0.25593,0.27473 0.29958,0.44939 0.0743,0.29751 0.15542,7.77268 0,8.2388 -0.30158,0.90472 -0.88698,2.08536 -1.34818,2.54654 -0.30711,0.30713 -0.0189,1.10537 -0.14984,1.49798 -0.0315,0.0947 -0.22898,-0.0707 -0.29959,0 -0.1059,0.1059 0.0671,0.3154 0,0.44937 -0.0372,0.0743 -0.38434,0.40405 -0.44939,0.59919 -0.31995,0.95986 0,3.42663 0,4.49388 0,0.38205 -0.24311,2.15364 0,2.39677 0.24647,0.24645 1.54631,0.64751 1.79756,0.89877 0.67296,0.67296 1.87235,1.42296 2.54654,2.09715 0.14984,0.14984 0.59919,0 0.74898,0.14984 0.34623,0.34623 3.9867,-0.32849 4.64369,0 0.51369,0.25684 4.2652,1.47433 4.64371,1.34818 0.31343,-0.10443 0.60699,-0.50194 0.89877,-0.59919 0.7695,-0.25651 1.52593,-0.44939 2.39675,-0.44939 1.97139,0 6.42498,0.30772 7.93921,-0.44939 0.96418,-0.48209 3.53759,0.47815 4.49389,0 0.22629,-0.11312 0.36108,-0.51983 0.59917,-0.59919 0.37015,-0.12345 0.82651,-0.11361 1.19838,-0.29959 0.2627,-0.13131 0.47872,-0.46406 0.74898,-0.59918 1.02704,-0.51352 2.26823,-0.68474 3.29554,-1.19838 0.56287,-0.28144 0.93182,-0.91531 1.49796,-1.19837 0.9831,-0.49156 1.76241,-1.16323 2.54652,-1.94736 0.27644,-0.27642 1.00783,-0.429 1.34819,-0.59917 0.41934,-0.20968 1.15371,-2.00786 1.34816,-2.39676 0.19927,-0.39854 1.13833,-0.53912 1.34817,-0.74897 0.10591,-0.1059 0,-0.8822 0,-1.04858 0,-1.34256 0.34521,-4.50685 0,-5.54246 -0.20357,-0.6107 -0.61871,-0.92807 -0.89879,-1.34818 -0.25107,-0.37661 -0.69726,-0.64554 -0.89877,-1.04857 -0.4923,-0.98459 -0.257,-2.31153 -0.749,-3.29552 -0.0798,-0.15984 0.08,-0.43941 0,-0.59919 -0.35309,-0.70624 -1.19836,-2.85022 -1.19836,-3.59512 0,-0.1382 -0.35303,-2.84613 -0.2996,-2.84613 -0.63543,0.67503 -0.72806,-2.15685 -0.89877,-2.69633 -0.51609,-1.54828 -3.74492,-3.8652 -3.74492,-5.54248 0,-2.6402 -1.71538,-4.86111 -2.99592,-6.14165 -0.41085,-0.41083 -0.8025,-3.19925 -1.04856,-3.44531 -0.16132,-0.16132 -0.23859,-0.68796 -0.44941,-0.89879 -0.3287,-0.3287 -0.86048,-1.01029 -1.19836,-1.34817 -0.70195,-0.70193 0.15017,-3.7446 -0.4494,-4.34409"
       inkscape:connector-curvature="0"
       sodipodi:nodetypes="csssssssscssssssscsssssssssssssssssssscsccsssssc"
       inkscape:export-filename="/home/tsuname/Documents/hyperparamter.space/static/img/mechanistic_single_cell/xkcdcell.png"
       inkscape:export-xdpi="200"
       inkscape:export-ydpi="200" />
    <flowRoot
       xml:space="preserve"
       id="flowRoot30557"
       style="font-style:normal;font-variant:normal;font-weight:normal;font-stretch:normal;font-size:7.79112244px;line-height:125%;font-family:xkcd;-inkscape-font-specification:xkcd;letter-spacing:0px;word-spacing:0px;fill:#000000;fill-opacity:1;stroke:none;stroke-width:0.13317166;stroke-linecap:butt;stroke-linejoin:miter;stroke-miterlimit:4;stroke-dasharray:none;stroke-opacity:1"
       inkscape:export-filename="/home/tsuname/Documents/hyperparamter.space/static/img/mechanistic_single_cell/xkcdcell.png"
       inkscape:export-xdpi="200"
       inkscape:export-ydpi="200"
       transform="matrix(1.1433855,0,0,1.1433855,-53.080701,-76.945129)"><flowRegion
         id="flowRegion30559"><rect
           id="rect30561"
           width="110.32787"
           height="31.164494"
           x="432.0278"
           y="468.52075"
           style="font-style:normal;font-variant:normal;font-weight:normal;font-stretch:normal;font-family:xkcd;-inkscape-font-specification:xkcd;stroke-width:0.13317166;stroke-miterlimit:4;stroke-dasharray:none" /></flowRegion><flowPara
         id="flowPara30563"
         style="font-style:normal;font-variant:normal;font-weight:bold;font-stretch:normal;font-family:xkcd;-inkscape-font-specification:'xkcd Bold'">What if we tried </flowPara><flowPara
         id="flowPara30565"
         style="font-style:normal;font-variant:normal;font-weight:bold;font-stretch:normal;font-family:xkcd;-inkscape-font-specification:'xkcd Bold'">   more power?</flowPara></flowRoot>    <text
       xml:space="preserve"
       style="font-style:normal;font-weight:normal;font-size:40px;line-height:125%;font-family:sans-serif;letter-spacing:0px;word-spacing:0px;fill:#000000;fill-opacity:1;stroke:none;stroke-width:2.7;stroke-linecap:butt;stroke-linejoin:miter;stroke-miterlimit:4;stroke-dasharray:none;stroke-opacity:1"
       x="576.42859"
       y="318.07648"
       id="text30571"
       sodipodi:linespacing="125%"><tspan
         sodipodi:role="line"
         id="tspan30573"
         x="576.42859"
         y="318.07648" /></text>
    <path
       style="fill:none;fill-rule:evenodd;stroke:#000000;stroke-width:0.80077106;stroke-linecap:butt;stroke-linejoin:miter;stroke-miterlimit:4;stroke-dasharray:none;stroke-opacity:1"
       d="m 426.48818,485.36959 4.02504,0 c 0.70734,0 1.41444,0.022 2.12087,0.0578 0.70643,0.0358 1.42104,0.0738 2.11602,-0.0578 0.59506,-0.11272 1.15986,-0.35146 1.69475,-0.63553 1.61402,-0.85718 3.01107,-2.17113 3.8132,-3.8132 0.26512,-0.54274 0.46395,-1.11559 0.63553,-1.69474 0.28747,-0.97036 0.50015,-1.96287 0.63554,-2.96582"
       id="path30587"
       inkscape:path-effect="#path-effect30589"
       inkscape:original-d="m 426.48818,485.36959 c 1.34169,0 2.68337,0 4.02504,0 1.38292,0 2.86277,0.15263 4.23689,0 0.87879,-0.0977 0.88521,-0.28857 1.69475,-0.63553 1.95439,-0.83759 2.88192,-1.95064 3.8132,-3.8132 0.22852,-0.45702 0.51154,-1.19882 0.63553,-1.69474 0.16683,-0.6673 -0.38354,-2.96582 0.63554,-2.96582"
       inkscape:connector-curvature="0"
       inkscape:export-filename="/home/tsuname/Documents/hyperparamter.space/static/img/mechanistic_single_cell/xkcdcell.png"
       inkscape:export-xdpi="200"
       inkscape:export-ydpi="200" />
    <rect
       style="fill:#ffffff;fill-opacity:1;stroke:#ffffff;stroke-width:12.0100174;stroke-linejoin:round;stroke-miterlimit:4;stroke-dasharray:none;stroke-opacity:1"
       id="rect4179"
       width="98.457695"
       height="65.600555"
       x="261.50308"
       y="470.80283"
       ry="3.9560366"
       inkscape:export-filename="/home/tsuname/Documents/hyperparamter.space/static/img/mechanistic_single_cell/xkcdcell.png"
       inkscape:export-xdpi="200"
       inkscape:export-ydpi="200" />
  </g>
</svg>
